<mxfile host="app.diagrams.net" modified="2024-06-03T01:55:25.501Z" agent="Mozilla/5.0 (Windows NT 10.0; Win64; x64) AppleWebKit/537.36 (KHTML, like Gecko) Chrome/117.0.0.0 Safari/537.36" version="24.4.8" etag="CyzYGIJvnSXL0FB_Qm-q" type="github">
  <diagram name="第 1 页" id="fqjM43HLM6gEiQtpVqLU">
    <mxGraphModel>
      <root>
        <mxCell id="0" />
        <mxCell id="1" parent="0" />
      </root>
    </mxGraphModel>
  </diagram>
</mxfile>
